{
  "accessors": [
    {
      "bufferView": 2,
      "componentType": 5126,
      "count": 1366,
      "max": [
        174.29330444335938,
        180.43310546875,
        5.1346001625061035
      ],
      "min": [
        -174.29330444335938,
        -104.53720092773438,
        -14.303099632263184
      ],
      "type": "VEC3"
    },
    {
      "bufferView": 2,
      "byteOffset": 16392,
      "componentType": 5126,
      "count": 1366,
      "max": [
        1.0,
        1.0,
        1.0
      ],
      "min": [
        -1.0,
        -1.0,
        -1.0
      ],
      "type": "VEC3"
    },
    {
      "bufferView": 3,
      "componentType": 5126,
      "count": 1366,
      "max": [
        1.0,
        1.0,
        0.9999952912330627,
        1.0
      ],
      "min": [
        -1.0,
        -1.0,
        -0.9999961853027344,
        1.0
      ],
      "type": "VEC4"
    },
    {
      "bufferView": 1,
      "componentType": 5126,
      "count": 1366,
      "max": [
        0.9990000128746033,
        0.8037999868392944
      ],
      "min": [
        0.08169999718666077,
        0.014100000262260437
      ],
      "type": "VEC2"
    },
    {
      "bufferView": 0,
      "componentType": 5125,
      "count": 4548,
      "type": "SCALAR"
    },
    {
      "bufferView": 2,
      "byteOffset": 32784,
      "componentType": 5126,
      "count": 8068,
      "max": [
        33.12879943847656,
        62.0525016784668,
        105.77459716796875
      ],
      "min": [
        -32.35309982299805,
        -29.225400924682617,
        6.809599876403809
      ],
      "type": "VEC3"
    },
    {
      "bufferView": 2,
      "byteOffset": 129600,
      "componentType": 5126,
      "count": 8068,
      "max": [
        1.0,
        1.0,
        1.0
      ],
      "min": [
        -1.0,
        -1.0,
        -1.0
      ],
      "type": "VEC3"
    },
    {
      "bufferView": 3,
      "byteOffset": 21856,
      "componentType": 5126,
      "count": 8068,
      "max": [
        1.0,
        1.0,
        1.0,
        1.0
      ],
      "min": [
        -1.0,
        -1.0,
        -1.0,
        -1.0
      ],
      "type": "VEC4"
    },
    {
      "bufferView": 1,
      "byteOffset": 10928,
      "componentType": 5126,
      "count": 8068,
      "max": [
        0.9998999834060669,
        0.9991000294685364
      ],
      "min": [
        0.0,
        0.0
      ],
      "type": "VEC2"
    },
    {
      "bufferView": 0,
      "byteOffset": 18192,
      "componentType": 5125,
      "count": 21372,
      "type": "SCALAR"
    },
    {
      "bufferView": 2,
      "byteOffset": 226416,
      "componentType": 5126,
      "count": 9364,
      "max": [
        35.339298248291016,
        62.65829849243164,
        110.7677993774414
      ],
      "min": [
        -32.35309982299805,
        -29.225400924682617,
        3.501699924468994
      ],
      "type": "VEC3"
    },
    {
      "bufferView": 2,
      "byteOffset": 338784,
      "componentType": 5126,
      "count": 9364,
      "max": [
        1.0,
        1.0,
        1.0
      ],
      "min": [
        -1.0,
        -1.0,
        -1.0
      ],
      "type": "VEC3"
    },
    {
      "bufferView": 3,
      "byteOffset": 150944,
      "componentType": 5126,
      "count": 9364,
      "max": [
        1.0,
        1.0,
        1.0,
        1.0
      ],
      "min": [
        -1.0,
        -1.0,
        -1.0,
        -1.0
      ],
      "type": "VEC4"
    },
    {
      "bufferView": 1,
      "byteOffset": 75472,
      "componentType": 5126,
      "count": 9364,
      "max": [
        1.0,
        0.9993000030517578
      ],
      "min": [
        0.0,
        0.0
      ],
      "type": "VEC2"
    },
    {
      "bufferView": 0,
      "byteOffset": 103680,
      "componentType": 5125,
      "count": 25422,
      "type": "SCALAR"
    },
    {
      "bufferView": 2,
      "byteOffset": 451152,
      "componentType": 5126,
      "count": 9714,
      "max": [
        56.050498962402344,
        73.79750061035156,
        74.7666015625
      ],
      "min": [
        -59.397499084472656,
        -69.84239959716797,
        -0.0
      ],
      "type": "VEC3"
    },
    {
      "bufferView": 2,
      "byteOffset": 567720,
      "componentType": 5126,
      "count": 9714,
      "max": [
        1.0,
        1.0,
        1.0
      ],
      "min": [
        -1.0,
        -1.0,
        -1.0
      ],
      "type": "VEC3"
    },
    {
      "bufferView": 3,
      "byteOffset": 300768,
      "componentType": 5126,
      "count": 9714,
      "max": [
        1.0,
        1.0,
        1.0,
        1.0
      ],
      "min": [
        -1.0,
        -1.0,
        -1.0,
        -1.0
      ],
      "type": "VEC4"
    },
    {
      "bufferView": 1,
      "byteOffset": 150384,
      "componentType": 5126,
      "count": 9714,
      "max": [
        0.9993000030517578,
        1.0
      ],
      "min": [
        0.0005000000237487257,
        0.0
      ],
      "type": "VEC2"
    },
    {
      "bufferView": 0,
      "byteOffset": 205368,
      "componentType": 5125,
      "count": 22164,
      "type": "SCALAR"
    },
    {
      "bufferView": 2,
      "byteOffset": 684288,
      "componentType": 5126,
      "count": 12019,
      "max": [
        53.5458984375,
        71.50479888916016,
        77.99500274658203
      ],
      "min": [
        -59.397499084472656,
        -69.84239959716797,
        -0.0
      ],
      "type": "VEC3"
    },
    {
      "bufferView": 2,
      "byteOffset": 828516,
      "componentType": 5126,
      "count": 12019,
      "max": [
        1.0,
        1.0,
        1.0
      ],
      "min": [
        -1.0,
        -1.0,
        -1.0
      ],
      "type": "VEC3"
    },
    {
      "bufferView": 3,
      "byteOffset": 456192,
      "componentType": 5126,
      "count": 12019,
      "max": [
        1.0,
        1.0,
        1.0,
        1.0
      ],
      "min": [
        -1.0,
        -1.0,
        -1.0,
        -1.0
      ],
      "type": "VEC4"
    },
    {
      "bufferView": 1,
      "byteOffset": 228096,
      "componentType": 5126,
      "count": 12019,
      "max": [
        0.9994999766349792,
        1.0
      ],
      "min": [
        0.0005000000237487257,
        0.005200000014156103
      ],
      "type": "VEC2"
    },
    {
      "bufferView": 0,
      "byteOffset": 294024,
      "componentType": 5125,
      "count": 40338,
      "type": "SCALAR"
    },
    {
      "bufferView": 2,
      "byteOffset": 972744,
      "componentType": 5126,
      "count": 7598,
      "max": [
        53.5458984375,
        66.69770050048828,
        75.43219757080078
      ],
      "min": [
        -59.397499084472656,
        -69.84239959716797,
        -0.0
      ],
      "type": "VEC3"
    },
    {
      "bufferView": 2,
      "byteOffset": 1063920,
      "componentType": 5126,
      "count": 7598,
      "max": [
        1.0,
        1.0,
        1.0
      ],
      "min": [
        -1.0,
        -1.0,
        -1.0
      ],
      "type": "VEC3"
    },
    {
      "bufferView": 3,
      "byteOffset": 648496,
      "componentType": 5126,
      "count": 7598,
      "max": [
        1.0,
        1.0,
        1.0,
        1.0
      ],
      "min": [
        -1.0,
        -1.0,
        -1.0,
        -1.0
      ],
      "type": "VEC4"
    },
    {
      "bufferView": 1,
      "byteOffset": 324248,
      "componentType": 5126,
      "count": 7598,
      "max": [
        1.000499963760376,
        0.9991000294685364
      ],
      "min": [
        0.0006000000284984708,
        0.005200000014156103
      ],
      "type": "VEC2"
    },
    {
      "bufferView": 0,
      "byteOffset": 455376,
      "componentType": 5125,
      "count": 20832,
      "type": "SCALAR"
    }
  ],
  "asset": {
    "extras": {
      "author": "the_table (https://sketchfab.com/the_table)",
      "license": "CC-BY-4.0 (http://creativecommons.org/licenses/by/4.0/)",
      "source": "https://sketchfab.com/3d-models/star-wars-knights-of-the-old-republic-t3-m4-fea41f8063b5490790767e68f787de11",
      "title": "Star Wars: Knights of the Old Republic - T3-M4"
    },
    "generator": "Sketchfab-12.65.0",
    "version": "2.0"
  },
  "bufferViews": [
    {
      "buffer": 0,
      "byteLength": 538704,
      "name": "floatBufferViews",
      "target": 34963
    },
    {
      "buffer": 0,
      "byteLength": 385032,
      "byteOffset": 538704,
      "byteStride": 8,
      "name": "floatBufferViews",
      "target": 34962
    },
    {
      "buffer": 0,
      "byteLength": 1155096,
      "byteOffset": 923736,
      "byteStride": 12,
      "name": "floatBufferViews",
      "target": 34962
    },
    {
      "buffer": 0,
      "byteLength": 770064,
      "byteOffset": 2078832,
      "byteStride": 16,
      "name": "floatBufferViews",
      "target": 34962
    }
  ],
  "buffers": [
    {
      "byteLength": 2848896,
      "uri": "scene.bin"
    }
  ],
  "images": [
    {
      "uri": "textures/13___Default_baseColor.jpeg"
    },
    {
      "uri": "textures/13___Default_metallicRoughness.png"
    },
    {
      "uri": "textures/13___Default_normal.png"
    },
    {
      "uri": "textures/14___Default_baseColor.jpeg"
    },
    {
      "uri": "textures/14___Default_metallicRoughness.png"
    },
    {
      "uri": "textures/14___Default_emissive.jpeg"
    },
    {
      "uri": "textures/14___Default_normal.png"
    },
    {
      "uri": "textures/15___Default_baseColor.jpeg"
    },
    {
      "uri": "textures/15___Default_metallicRoughness.png"
    },
    {
      "uri": "textures/15___Default_normal.png"
    }
  ],
  "materials": [
    {
      "doubleSided": true,
      "name": "13___Default",
      "normalTexture": {
        "index": 2
      },
      "occlusionTexture": {
        "index": 1
      },
      "pbrMetallicRoughness": {
        "baseColorTexture": {
          "index": 0
        },
        "metallicRoughnessTexture": {
          "index": 1
        }
      }
    },
    {
      "doubleSided": true,
      "emissiveFactor": [
        1.0,
        1.0,
        1.0
      ],
      "emissiveTexture": {
        "index": 5
      },
      "name": "14___Default",
      "normalTexture": {
        "index": 6
      },
      "occlusionTexture": {
        "index": 4
      },
      "pbrMetallicRoughness": {
        "baseColorTexture": {
          "index": 3
        },
        "metallicRoughnessTexture": {
          "index": 4
        }
      }
    },
    {
      "doubleSided": true,
      "name": "15___Default",
      "normalTexture": {
        "index": 9
      },
      "occlusionTexture": {
        "index": 8
      },
      "pbrMetallicRoughness": {
        "baseColorTexture": {
          "index": 7
        },
        "metallicRoughnessTexture": {
          "index": 8
        }
      }
    }
  ],
  "meshes": [
    {
      "name": "Object_0",
      "primitives": [
        {
          "attributes": {
            "NORMAL": 1,
            "POSITION": 0,
            "TANGENT": 2,
            "TEXCOORD_0": 3
          },
          "indices": 4,
          "material": 0,
          "mode": 4
        }
      ]
    },
    {
      "name": "Object_1",
      "primitives": [
        {
          "attributes": {
            "NORMAL": 6,
            "POSITION": 5,
            "TANGENT": 7,
            "TEXCOORD_0": 8
          },
          "indices": 9,
          "material": 1,
          "mode": 4
        }
      ]
    },
    {
      "name": "Object_2",
      "primitives": [
        {
          "attributes": {
            "NORMAL": 11,
            "POSITION": 10,
            "TANGENT": 12,
            "TEXCOORD_0": 13
          },
          "indices": 14,
          "material": 1,
          "mode": 4
        }
      ]
    },
    {
      "name": "Object_3",
      "primitives": [
        {
          "attributes": {
            "NORMAL": 16,
            "POSITION": 15,
            "TANGENT": 17,
            "TEXCOORD_0": 18
          },
          "indices": 19,
          "material": 2,
          "mode": 4
        }
      ]
    },
    {
      "name": "Object_4",
      "primitives": [
        {
          "attributes": {
            "NORMAL": 21,
            "POSITION": 20,
            "TANGENT": 22,
            "TEXCOORD_0": 23
          },
          "indices": 24,
          "material": 2,
          "mode": 4
        }
      ]
    },
    {
      "name": "Object_5",
      "primitives": [
        {
          "attributes": {
            "NORMAL": 26,
            "POSITION": 25,
            "TANGENT": 27,
            "TEXCOORD_0": 28
          },
          "indices": 29,
          "material": 2,
          "mode": 4
        }
      ]
    }
  ],
  "nodes": [
    {
      "children": [
        1
      ],
      "matrix": [
        0.014264623634517193,
        0.0,
        0.0,
        0.0,
        0.0,
        3.1673827193306343e-18,
        -0.014264623634517193,
        0.0,
        0.0,
        0.014264623634517193,
        3.1673827193306343e-18,
        0.0,
        0.0,
        0.0,
        0.0,
        1.0
      ],
      "name": "Sketchfab_model"
    },
    {
      "children": [
        2,
        3,
        4,
        5,
        6,
        7
      ],
      "name": "T3-M4.obj.cleaner.materialmerger.gles"
    },
    {
      "mesh": 0,
      "name": "Object_2"
    },
    {
      "mesh": 1,
      "name": "Object_3"
    },
    {
      "mesh": 2,
      "name": "Object_4"
    },
    {
      "mesh": 3,
      "name": "Object_5"
    },
    {
      "mesh": 4,
      "name": "Object_6"
    },
    {
      "mesh": 5,
      "name": "Object_7"
    }
  ],
  "samplers": [
    {
      "magFilter": 9729,
      "minFilter": 9987,
      "wrapS": 10497,
      "wrapT": 10497
    }
  ],
  "scene": 0,
  "scenes": [
    {
      "name": "Sketchfab_Scene",
      "nodes": [
        0
      ]
    }
  ],
  "textures": [
    {
      "sampler": 0,
      "source": 0
    },
    {
      "sampler": 0,
      "source": 1
    },
    {
      "sampler": 0,
      "source": 2
    },
    {
      "sampler": 0,
      "source": 3
    },
    {
      "sampler": 0,
      "source": 4
    },
    {
      "sampler": 0,
      "source": 5
    },
    {
      "sampler": 0,
      "source": 6
    },
    {
      "sampler": 0,
      "source": 7
    },
    {
      "sampler": 0,
      "source": 8
    },
    {
      "sampler": 0,
      "source": 9
    }
  ]
}
