{
  "accessors": [
    {
      "bufferView": 2,
      "componentType": 5126,
      "count": 108,
      "max": [
        -1462.9788818359375,
        193.16421508789063,
        659.86572265625
      ],
      "min": [
        -2071.380126953125,
        -188.83570861816406,
        507.4176330566406
      ],
      "type": "VEC3"
    },
    {
      "bufferView": 2,
      "byteOffset": 1296,
      "componentType": 5126,
      "count": 108,
      "max": [
        1.0,
        1.0,
        0.9983382225036621
      ],
      "min": [
        -0.9999982118606567,
        -1.0,
        -1.0
      ],
      "type": "VEC3"
    },
    {
      "bufferView": 1,
      "componentType": 5126,
      "count": 108,
      "max": [
        0.9799999594688416,
        0.6802912950515747
      ],
      "min": [
        0.019999999552965164,
        0.019999999552965164
      ],
      "type": "VEC2"
    },
    {
      "bufferView": 0,
      "componentType": 5125,
      "count": 156,
      "type": "SCALAR"
    },
    {
      "bufferView": 2,
      "byteOffset": 2592,
      "componentType": 5126,
      "count": 65532,
      "max": [
        2224.999267578125,
        2088.57177734375,
        1110.43603515625
      ],
      "min": [
        -2129.318603515625,
        -2077.06494140625,
        202.05413818359375
      ],
      "type": "VEC3"
    },
    {
      "bufferView": 2,
      "byteOffset": 788976,
      "componentType": 5126,
      "count": 65532,
      "max": [
        1.0,
        1.0,
        1.0
      ],
      "min": [
        -1.0,
        -1.0,
        -1.0
      ],
      "type": "VEC3"
    },
    {
      "bufferView": 3,
      "componentType": 5126,
      "count": 65532,
      "max": [
        1.0,
        1.0,
        1.0,
        1.0
      ],
      "min": [
        -1.0,
        -1.0,
        -1.0,
        -1.0
      ],
      "type": "VEC4"
    },
    {
      "bufferView": 1,
      "byteOffset": 864,
      "componentType": 5126,
      "count": 65532,
      "max": [
        0.9922561645507813,
        0.9961616396903992
      ],
      "min": [
        0.005238732323050499,
        0.008744973689317703
      ],
      "type": "VEC2"
    },
    {
      "bufferView": 1,
      "byteOffset": 525120,
      "componentType": 5126,
      "count": 65532,
      "max": [
        0.9900000095367432,
        0.9873120784759521
      ],
      "min": [
        0.009999999776482582,
        0.009999999776482582
      ],
      "type": "VEC2"
    },
    {
      "bufferView": 1,
      "byteOffset": 1049376,
      "componentType": 5126,
      "count": 65532,
      "max": [
        0.9980020523071289,
        0.9472634792327881
      ],
      "min": [
        0.001998000079765916,
        0.001998000079765916
      ],
      "type": "VEC2"
    },
    {
      "bufferView": 0,
      "byteOffset": 624,
      "componentType": 5125,
      "count": 136470,
      "type": "SCALAR"
    },
    {
      "bufferView": 2,
      "byteOffset": 1575360,
      "componentType": 5126,
      "count": 30215,
      "max": [
        2131.78125,
        1908.564208984375,
        948.9984130859375
      ],
      "min": [
        -1497.70361328125,
        -1905.2982177734375,
        202.781005859375
      ],
      "type": "VEC3"
    },
    {
      "bufferView": 2,
      "byteOffset": 1937940,
      "componentType": 5126,
      "count": 30215,
      "max": [
        1.0,
        1.0,
        1.0
      ],
      "min": [
        -1.0,
        -1.0,
        -1.0
      ],
      "type": "VEC3"
    },
    {
      "bufferView": 3,
      "byteOffset": 1048512,
      "componentType": 5126,
      "count": 30215,
      "max": [
        1.0,
        1.0,
        1.0,
        1.0
      ],
      "min": [
        -1.0,
        -1.0,
        -1.0,
        -1.0
      ],
      "type": "VEC4"
    },
    {
      "bufferView": 1,
      "byteOffset": 1573632,
      "componentType": 5126,
      "count": 30215,
      "max": [
        0.9796497225761414,
        0.48555371165275574
      ],
      "min": [
        0.5263844132423401,
        0.017408855259418488
      ],
      "type": "VEC2"
    },
    {
      "bufferView": 1,
      "byteOffset": 1815352,
      "componentType": 5126,
      "count": 30215,
      "max": [
        0.9894657135009766,
        0.9855836629867554
      ],
      "min": [
        0.009999999776482582,
        0.013136598281562328
      ],
      "type": "VEC2"
    },
    {
      "bufferView": 1,
      "byteOffset": 2057072,
      "componentType": 5126,
      "count": 30215,
      "max": [
        0.9328906536102295,
        0.9473820328712463
      ],
      "min": [
        0.013145283795893192,
        0.015044578351080418
      ],
      "type": "VEC2"
    },
    {
      "bufferView": 0,
      "byteOffset": 546504,
      "componentType": 5125,
      "count": 70905,
      "type": "SCALAR"
    }
  ],
  "asset": {
    "extras": {
      "author": "lemonaden (https://sketchfab.com/lemonaden)",
      "license": "CC-BY-4.0 (http://creativecommons.org/licenses/by/4.0/)",
      "source": "https://sketchfab.com/3d-models/ebon-hawk-7f7cd2b43ed64a4ba628b1bb5398d838",
      "title": "Ebon Hawk"
    },
    "generator": "Sketchfab-12.67.0",
    "version": "2.0"
  },
  "bufferViews": [
    {
      "buffer": 0,
      "byteLength": 830124,
      "name": "floatBufferViews",
      "target": 34963
    },
    {
      "buffer": 0,
      "byteLength": 2298792,
      "byteOffset": 830124,
      "byteStride": 8,
      "name": "floatBufferViews",
      "target": 34962
    },
    {
      "buffer": 0,
      "byteLength": 2300520,
      "byteOffset": 3128916,
      "byteStride": 12,
      "name": "floatBufferViews",
      "target": 34962
    },
    {
      "buffer": 0,
      "byteLength": 1531952,
      "byteOffset": 5429436,
      "byteStride": 16,
      "name": "floatBufferViews",
      "target": 34962
    }
  ],
  "buffers": [
    {
      "byteLength": 6961388,
      "uri": "scene.bin"
    }
  ],
  "extensionsUsed": [
    "KHR_materials_clearcoat"
  ],
  "images": [
    {
      "uri": "textures/ebonhawk_V_EHawk01_baseColor.png"
    },
    {
      "uri": "textures/ebonhawk_V_EHawk01_metallicRoughness.png"
    },
    {
      "uri": "textures/ebonhawk_V_EHawk01_emissive.png"
    },
    {
      "uri": "textures/ebonhawk_V_EHawk01_normal.png"
    }
  ],
  "materials": [
    {
      "doubleSided": true,
      "name": "08_-_Default",
      "pbrMetallicRoughness": {
        "baseColorFactor": [
          0.7241664348743744,
          0.3808269902227277,
          0.0017820830101539966,
          1.0
        ],
        "metallicFactor": 0.0,
        "roughnessFactor": 0.8929713596497552
      }
    },
    {
      "doubleSided": true,
      "emissiveFactor": [
        1.0,
        1.0,
        1.0
      ],
      "emissiveTexture": {
        "index": 2
      },
      "extensions": {
        "KHR_materials_clearcoat": {
          "clearcoatFactor": 0.3361195726854301,
          "clearcoatRoughnessFactor": 0.22059628258212793
        }
      },
      "name": "ebonhawk_V_EHawk01",
      "normalTexture": {
        "index": 3
      },
      "occlusionTexture": {
        "index": 1
      },
      "pbrMetallicRoughness": {
        "baseColorTexture": {
          "index": 0
        },
        "metallicRoughnessTexture": {
          "index": 1
        }
      }
    }
  ],
  "meshes": [
    {
      "name": "glass_08 - Default_0",
      "primitives": [
        {
          "attributes": {
            "NORMAL": 1,
            "POSITION": 0,
            "TEXCOORD_0": 2
          },
          "indices": 3,
          "material": 0,
          "mode": 4
        }
      ]
    },
    {
      "name": "ebonhawk_ebonhawk_V_EHawk01_0",
      "primitives": [
        {
          "attributes": {
            "NORMAL": 5,
            "POSITION": 4,
            "TANGENT": 6,
            "TEXCOORD_0": 7,
            "TEXCOORD_1": 8,
            "TEXCOORD_2": 9
          },
          "indices": 10,
          "material": 1,
          "mode": 4
        }
      ]
    },
    {
      "name": "ebonhawk_ebonhawk_V_EHawk01_0",
      "primitives": [
        {
          "attributes": {
            "NORMAL": 12,
            "POSITION": 11,
            "TANGENT": 13,
            "TEXCOORD_0": 14,
            "TEXCOORD_1": 15,
            "TEXCOORD_2": 16
          },
          "indices": 17,
          "material": 1,
          "mode": 4
        }
      ]
    }
  ],
  "nodes": [
    {
      "children": [
        1
      ],
      "matrix": [
        1.0,
        0.0,
        0.0,
        0.0,
        0.0,
        2.220446049250313e-16,
        -1.0,
        0.0,
        0.0,
        1.0,
        2.220446049250313e-16,
        0.0,
        0.0,
        0.0,
        0.0,
        1.0
      ],
      "name": "Sketchfab_model"
    },
    {
      "children": [
        2
      ],
      "matrix": [
        1.0,
        0.0,
        0.0,
        0.0,
        0.0,
        0.0,
        1.0,
        0.0,
        0.0,
        -1.0,
        0.0,
        0.0,
        0.0,
        0.0,
        0.0,
        1.0
      ],
      "name": "cfccfd228ae449d4900a2adf95bcef8b.fbx"
    },
    {
      "children": [
        3,
        5
      ],
      "name": "RootNode"
    },
    {
      "children": [
        4
      ],
      "matrix": [
        1.0,
        0.0,
        0.0,
        0.0,
        0.0,
        2.220446049250313e-16,
        -1.0,
        0.0,
        0.0,
        1.0,
        2.220446049250313e-16,
        0.0,
        0.0,
        0.0,
        0.0,
        1.0
      ],
      "name": "glass"
    },
    {
      "mesh": 0,
      "name": "glass_08 - Default_0"
    },
    {
      "children": [
        6,
        7
      ],
      "matrix": [
        1.0,
        0.0,
        0.0,
        0.0,
        0.0,
        2.220446049250313e-16,
        -1.0,
        0.0,
        0.0,
        1.0,
        2.220446049250313e-16,
        0.0,
        0.0,
        0.0,
        0.0,
        1.0
      ],
      "name": "ebonhawk"
    },
    {
      "mesh": 1,
      "name": "ebonhawk_ebonhawk_V_EHawk01_0"
    },
    {
      "mesh": 2,
      "name": "ebonhawk_ebonhawk_V_EHawk01_0"
    }
  ],
  "samplers": [
    {
      "magFilter": 9729,
      "minFilter": 9987,
      "wrapS": 10497,
      "wrapT": 10497
    }
  ],
  "scene": 0,
  "scenes": [
    {
      "name": "Sketchfab_Scene",
      "nodes": [
        0
      ]
    }
  ],
  "textures": [
    {
      "sampler": 0,
      "source": 0
    },
    {
      "sampler": 0,
      "source": 1
    },
    {
      "sampler": 0,
      "source": 2
    },
    {
      "sampler": 0,
      "source": 3
    }
  ]
}
